# xmcd
# 
# Track frame offsets:
#     150
#     13962
#     24690
#     34270
#     46372
#     59437
#     116922
#     127902
#     140575
#     153282
#     165887
#     179067
#     186692
#     197092
# 
# Disc length: 3269
# 
# Revision: 6
# Processed by: cddbd v1.5.2PL0 Copyright (c) Steve Scherf et al.
# Submitted via: BonkEnc v1.0.6
# 
DISCID=ce0cc30e
DTITLE=Various Artist - People Get Up
DYEAR=2001
DGENRE=Rhythmic Soul
TTITLE0=Lee Dorsey - Four Corners (Part 1)
TTITLE1=Bill Doggett - Make Your Move
TTITLE2=James Young - Barkin' Up The Wrong Tree
TTITLE3=The Isley Brothers - I Know Who You Been Socking It To
TTITLE4=Frank Howard - Do What You Wanna Do
TTITLE5=James Brown - Make It Funky (Parts 1,2,3 and 4)
TTITLE6=Jimmy Hicks - I'm Mr Big Stuff
TTITLE7=James Duncan - I Got It Made (In The Shade)
TTITLE8=Eddie Bo - We're Doin' It (The Thang)(Part 1)
TTITLE9=Jo Jo Thomas - Chitlins And Cuchifritos
TTITLE10=The Capitols - Soul Brother, Soul Sister
TTITLE11=The P and J Review Band - Right On Brother! Right On
TTITLE12=Mickey Murray - Fat Gal
TTITLE13=Johnny Lewis Quartet - Shuckin' And Jivin'
EXTD=
EXTT0=
EXTT1=
EXTT2=
EXTT3=
EXTT4=
EXTT5=
EXTT6=
EXTT7=
EXTT8=
EXTT9=
EXTT10=
EXTT11=
EXTT12=
EXTT13=
PLAYORDER=
